<?xml version="1.0" standalone="no"?><!-- Generator: Gravit.io --><svg xmlns="http://www.w3.org/2000/svg" xmlns:xlink="http://www.w3.org/1999/xlink" style="isolation:isolate" viewBox="0 0 250 250" width="250" height="250"><defs><clipPath id="_clipPath_BnpG9QQYvFckGusEYBMoMCQi2FjKZ4l7"><rect width="250" height="250"/></clipPath></defs><g clip-path="url(#_clipPath_BnpG9QQYvFckGusEYBMoMCQi2FjKZ4l7)"><rect width="250" height="250" style="fill:rgb(0,0,0)" fill-opacity="0"/><defs><filter id="tJSQjZTj5fzJA58i6I4IzurL7BXm48ir" x="-200%" y="-200%" width="400%" height="400%" filterUnits="objectBoundingBox" color-interpolation-filters="sRGB"><feOffset xmlns="http://www.w3.org/2000/svg" in="SourceGraphic" dx="0" dy="3"/><feGaussianBlur xmlns="http://www.w3.org/2000/svg" stdDeviation="2.146804531419514" result="pf_100_offsetBlur"/><feComposite xmlns="http://www.w3.org/2000/svg" in="SourceGraphic" in2="pf_100_offsetBlur" result="pf_100_inverse" operator="out"/><feFlood xmlns="http://www.w3.org/2000/svg" flood-color="#FFFFFF" flood-opacity="0.5" result="pf_100_color"/><feComposite xmlns="http://www.w3.org/2000/svg" in="pf_100_color" in2="pf_100_inverse" operator="in" result="pf_100_shadow"/><feComposite xmlns="http://www.w3.org/2000/svg" in="pf_100_shadow" in2="SourceGraphic" operator="over" result="_out_q4KcFymOHHDkB1x0kBCh8lvAvwvxZFos"/><feOffset xmlns="http://www.w3.org/2000/svg" in="_out_q4KcFymOHHDkB1x0kBCh8lvAvwvxZFos" dx="0" dy="-3"/><feGaussianBlur xmlns="http://www.w3.org/2000/svg" stdDeviation="2.146804531419514" result="pf_101_offsetBlur"/><feComposite xmlns="http://www.w3.org/2000/svg" in="_out_q4KcFymOHHDkB1x0kBCh8lvAvwvxZFos" in2="pf_101_offsetBlur" result="pf_101_inverse" operator="out"/><feFlood xmlns="http://www.w3.org/2000/svg" flood-color="#000000" flood-opacity="0.5" result="pf_101_color"/><feComposite xmlns="http://www.w3.org/2000/svg" in="pf_101_color" in2="pf_101_inverse" operator="in" result="pf_101_shadow"/><feComposite xmlns="http://www.w3.org/2000/svg" in="pf_101_shadow" in2="_out_q4KcFymOHHDkB1x0kBCh8lvAvwvxZFos" operator="over" result="_out_GV7PtJMIk1nLBh2xk8LN4gc6wsfXZggC"/><feMerge><feMergeNode in="_out_GV7PtJMIk1nLBh2xk8LN4gc6wsfXZggC"/></feMerge></filter></defs><g filter="url(#tJSQjZTj5fzJA58i6I4IzurL7BXm48ir)"><path d="M 15 0 L 235 0 C 243.279 0 250 6.721 250 15 L 250 235 C 250 243.279 243.279 250 235 250 L 15 250 C 6.721 250 0 243.279 0 235 L 0 15 C 0 6.721 6.721 0 15 0 Z" style="stroke:none;fill:#747474;stroke-miterlimit:10;"/></g><defs><filter id="u9AlhK3aE6CsCYAFM3SQxsSShsijfsPT" x="-200%" y="-200%" width="400%" height="400%" filterUnits="objectBoundingBox" color-interpolation-filters="sRGB"><feGaussianBlur xmlns="http://www.w3.org/2000/svg" in="SourceGraphic" stdDeviation="2.146804531419514"/><feOffset xmlns="http://www.w3.org/2000/svg" dx="-5" dy="5" result="pf_100_offsetBlur"/><feFlood xmlns="http://www.w3.org/2000/svg" flood-color="#000000" flood-opacity="0.5"/><feComposite xmlns="http://www.w3.org/2000/svg" in2="pf_100_offsetBlur" operator="in" result="pf_100_dropShadow"/><feBlend xmlns="http://www.w3.org/2000/svg" in="SourceGraphic" in2="pf_100_dropShadow" mode="normal"/></filter></defs><g filter="url(#u9AlhK3aE6CsCYAFM3SQxsSShsijfsPT)"><path d=" M 85 81.25 L 85 68.75 C 85 65.988 87.238 63.75 90 63.75 L 200 63.75 C 202.762 63.75 205 65.988 205 68.75 L 205 81.25 C 205 84.012 202.762 86.25 200 86.25 L 90 86.25 C 87.238 86.25 85 84.012 85 81.25 Z  M 90 136.25 L 200 136.25 C 202.762 136.25 205 134.012 205 131.25 L 205 118.75 C 205 115.988 202.762 113.75 200 113.75 L 90 113.75 C 87.238 113.75 85 115.988 85 118.75 L 85 131.25 C 85 134.012 87.238 136.25 90 136.25 Z  M 90 186.25 L 200 186.25 C 202.762 186.25 205 184.012 205 181.25 L 205 168.75 C 205 165.988 202.762 163.75 200 163.75 L 90 163.75 C 87.238 163.75 85 165.988 85 168.75 L 85 181.25 C 85 184.012 87.238 186.25 90 186.25 Z  M 50 90 L 70 90 C 72.762 90 75 87.762 75 85 L 75 65 C 75 62.238 72.762 60 70 60 L 50 60 C 47.238 60 45 62.238 45 65 L 45 85 C 45 87.762 47.238 90 50 90 Z  M 50 140 L 70 140 C 72.762 140 75 137.762 75 135 L 75 115 C 75 112.238 72.762 110 70 110 L 50 110 C 47.238 110 45 112.238 45 115 L 45 135 C 45 137.762 47.238 140 50 140 Z  M 50 190 L 70 190 C 72.762 190 75 187.762 75 185 L 75 165 C 75 162.238 72.762 160 70 160 L 50 160 C 47.238 160 45 162.238 45 165 L 45 185 C 45 187.762 47.238 190 50 190 Z " id="list-solid" fill="rgb(255,255,255)" vector-effect="non-scaling-stroke" stroke-width="1" stroke="rgb(255,255,255)" stroke-linejoin="miter" stroke-linecap="butt" stroke-miterlimit="4"/></g></g></svg>